<mxfile host="app.diagrams.net" modified="2023-05-26T05:38:58.937Z" agent="Mozilla/5.0 (Windows NT 10.0; Win64; x64) AppleWebKit/537.36 (KHTML, like Gecko) Chrome/113.0.0.0 Safari/537.36" version="21.3.4" etag="IIV5QkZ3ICISVpGq3_0Y" type="github">
  <diagram name="페이지-1" id="nqL_MgrCeLmV0vkcknYn">
    <mxGraphModel>
      <root>
        <mxCell id="0" />
        <mxCell id="1" parent="0" />
      </root>
    </mxGraphModel>
  </diagram>
</mxfile>
